<mxfile host="65bd71144e">
    <diagram id="WROcrRHvFX6HNeSmbhQn" name="PÃ¡gina-1">
        <mxGraphModel dx="850" dy="604" grid="1" gridSize="10" guides="1" tooltips="1" connect="1" arrows="1" fold="1" page="1" pageScale="1" pageWidth="827" pageHeight="1169" math="0" shadow="0">
            <root>
                <mxCell id="0"/>
                <mxCell id="1" parent="0"/>
                <mxCell id="63" value="" style="edgeStyle=none;html=1;" parent="1" edge="1">
                    <mxGeometry relative="1" as="geometry">
                        <mxPoint x="500" y="297.30000000000007" as="sourcePoint"/>
                        <mxPoint x="500" y="297.30000000000007" as="targetPoint"/>
                    </mxGeometry>
                </mxCell>
                <mxCell id="81" value="" style="edgeStyle=none;html=1;" parent="1" edge="1">
                    <mxGeometry relative="1" as="geometry">
                        <mxPoint x="690" y="303" as="sourcePoint"/>
                        <mxPoint x="690" y="303" as="targetPoint"/>
                    </mxGeometry>
                </mxCell>
                <mxCell id="153" value="" style="edgeStyle=none;html=1;" parent="1" edge="1">
                    <mxGeometry relative="1" as="geometry">
                        <mxPoint x="324" y="637.5" as="sourcePoint"/>
                        <mxPoint x="324" y="637.5" as="targetPoint"/>
                    </mxGeometry>
                </mxCell>
                <mxCell id="183" value="" style="edgeStyle=none;html=1;" parent="1" edge="1">
                    <mxGeometry relative="1" as="geometry">
                        <mxPoint x="504" y="660.25" as="sourcePoint"/>
                        <mxPoint x="504" y="660.25" as="targetPoint"/>
                    </mxGeometry>
                </mxCell>
                <mxCell id="184" value="" style="shape=table;html=1;whiteSpace=wrap;startSize=0;container=1;collapsible=0;childLayout=tableLayout;sketch=0;" parent="1" vertex="1">
                    <mxGeometry x="59" y="382" width="709" height="405" as="geometry"/>
                </mxCell>
                <mxCell id="239" style="shape=tableRow;horizontal=0;startSize=0;swimlaneHead=0;swimlaneBody=0;top=0;left=0;bottom=0;right=0;collapsible=0;dropTarget=0;fillColor=none;points=[[0,0.5],[1,0.5]];portConstraint=eastwest;sketch=0;" parent="184" vertex="1">
                    <mxGeometry width="709" height="45" as="geometry"/>
                </mxCell>
                <mxCell id="240" style="shape=partialRectangle;html=1;whiteSpace=wrap;connectable=0;fillColor=none;top=0;left=0;bottom=0;right=0;overflow=hidden;sketch=0;" parent="239" vertex="1">
                    <mxGeometry width="79" height="45" as="geometry">
                        <mxRectangle width="79" height="45" as="alternateBounds"/>
                    </mxGeometry>
                </mxCell>
                <mxCell id="241" value="TIERRA" style="shape=partialRectangle;html=1;whiteSpace=wrap;connectable=0;fillColor=none;top=0;left=0;bottom=0;right=0;overflow=hidden;sketch=0;" parent="239" vertex="1">
                    <mxGeometry x="79" width="79" height="45" as="geometry">
                        <mxRectangle width="79" height="45" as="alternateBounds"/>
                    </mxGeometry>
                </mxCell>
                <mxCell id="242" value="NAMEK" style="shape=partialRectangle;html=1;whiteSpace=wrap;connectable=0;fillColor=none;top=0;left=0;bottom=0;right=0;overflow=hidden;sketch=0;" parent="239" vertex="1">
                    <mxGeometry x="158" width="78" height="45" as="geometry">
                        <mxRectangle width="78" height="45" as="alternateBounds"/>
                    </mxGeometry>
                </mxCell>
                <mxCell id="243" value="VEGETA" style="shape=partialRectangle;html=1;whiteSpace=wrap;connectable=0;fillColor=none;top=0;left=0;bottom=0;right=0;overflow=hidden;sketch=0;" parent="239" vertex="1">
                    <mxGeometry x="236" width="84" height="45" as="geometry">
                        <mxRectangle width="84" height="45" as="alternateBounds"/>
                    </mxGeometry>
                </mxCell>
                <mxCell id="244" value="PLANETA KAIO" style="shape=partialRectangle;html=1;whiteSpace=wrap;connectable=0;fillColor=none;top=0;left=0;bottom=0;right=0;overflow=hidden;sketch=0;" parent="239" vertex="1">
                    <mxGeometry x="320" width="80" height="45" as="geometry">
                        <mxRectangle width="80" height="45" as="alternateBounds"/>
                    </mxGeometry>
                </mxCell>
                <mxCell id="245" value="REINO DE LOS DEMONIOS" style="shape=partialRectangle;html=1;whiteSpace=wrap;connectable=0;fillColor=none;top=0;left=0;bottom=0;right=0;overflow=hidden;sketch=0;" parent="239" vertex="1">
                    <mxGeometry x="400" width="73" height="45" as="geometry">
                        <mxRectangle width="73" height="45" as="alternateBounds"/>
                    </mxGeometry>
                </mxCell>
                <mxCell id="246" value="PLANETA DE BILLS" style="shape=partialRectangle;html=1;whiteSpace=wrap;connectable=0;fillColor=none;top=0;left=0;bottom=0;right=0;overflow=hidden;sketch=0;" parent="239" vertex="1">
                    <mxGeometry x="473" width="78" height="45" as="geometry">
                        <mxRectangle width="78" height="45" as="alternateBounds"/>
                    </mxGeometry>
                </mxCell>
                <mxCell id="247" value="LA HABITACION DEL TIEMPO" style="shape=partialRectangle;html=1;whiteSpace=wrap;connectable=0;fillColor=none;top=0;left=0;bottom=0;right=0;overflow=hidden;sketch=0;" parent="239" vertex="1">
                    <mxGeometry x="551" width="79" height="45" as="geometry">
                        <mxRectangle width="79" height="45" as="alternateBounds"/>
                    </mxGeometry>
                </mxCell>
                <mxCell id="257" value="PLANETA YADARAT" style="shape=partialRectangle;html=1;whiteSpace=wrap;connectable=0;fillColor=none;top=0;left=0;bottom=0;right=0;overflow=hidden;sketch=0;" parent="239" vertex="1">
                    <mxGeometry x="630" width="79" height="45" as="geometry">
                        <mxRectangle width="79" height="45" as="alternateBounds"/>
                    </mxGeometry>
                </mxCell>
                <mxCell id="221" style="shape=tableRow;horizontal=0;startSize=0;swimlaneHead=0;swimlaneBody=0;top=0;left=0;bottom=0;right=0;collapsible=0;dropTarget=0;fillColor=none;points=[[0,0.5],[1,0.5]];portConstraint=eastwest;sketch=0;" parent="184" vertex="1">
                    <mxGeometry y="45" width="709" height="45" as="geometry"/>
                </mxCell>
                <mxCell id="222" value="TIERRA" style="shape=partialRectangle;html=1;whiteSpace=wrap;connectable=0;fillColor=none;top=0;left=0;bottom=0;right=0;overflow=hidden;sketch=0;" parent="221" vertex="1">
                    <mxGeometry width="79" height="45" as="geometry">
                        <mxRectangle width="79" height="45" as="alternateBounds"/>
                    </mxGeometry>
                </mxCell>
                <mxCell id="223" value="0" style="shape=partialRectangle;html=1;whiteSpace=wrap;connectable=0;fillColor=none;top=0;left=0;bottom=0;right=0;overflow=hidden;sketch=0;" parent="221" vertex="1">
                    <mxGeometry x="79" width="79" height="45" as="geometry">
                        <mxRectangle width="79" height="45" as="alternateBounds"/>
                    </mxGeometry>
                </mxCell>
                <mxCell id="224" value="40" style="shape=partialRectangle;html=1;whiteSpace=wrap;connectable=0;fillColor=none;top=0;left=0;bottom=0;right=0;overflow=hidden;sketch=0;" parent="221" vertex="1">
                    <mxGeometry x="158" width="78" height="45" as="geometry">
                        <mxRectangle width="78" height="45" as="alternateBounds"/>
                    </mxGeometry>
                </mxCell>
                <mxCell id="225" value="0" style="shape=partialRectangle;html=1;whiteSpace=wrap;connectable=0;fillColor=none;top=0;left=0;bottom=0;right=0;overflow=hidden;sketch=0;" parent="221" vertex="1">
                    <mxGeometry x="236" width="84" height="45" as="geometry">
                        <mxRectangle width="84" height="45" as="alternateBounds"/>
                    </mxGeometry>
                </mxCell>
                <mxCell id="226" value="0" style="shape=partialRectangle;html=1;whiteSpace=wrap;connectable=0;fillColor=none;top=0;left=0;bottom=0;right=0;overflow=hidden;sketch=0;" parent="221" vertex="1">
                    <mxGeometry x="320" width="80" height="45" as="geometry">
                        <mxRectangle width="80" height="45" as="alternateBounds"/>
                    </mxGeometry>
                </mxCell>
                <mxCell id="227" value="0" style="shape=partialRectangle;html=1;whiteSpace=wrap;connectable=0;fillColor=none;top=0;left=0;bottom=0;right=0;overflow=hidden;sketch=0;" parent="221" vertex="1">
                    <mxGeometry x="400" width="73" height="45" as="geometry">
                        <mxRectangle width="73" height="45" as="alternateBounds"/>
                    </mxGeometry>
                </mxCell>
                <mxCell id="228" value="180" style="shape=partialRectangle;html=1;whiteSpace=wrap;connectable=0;fillColor=none;top=0;left=0;bottom=0;right=0;overflow=hidden;sketch=0;" parent="221" vertex="1">
                    <mxGeometry x="473" width="78" height="45" as="geometry">
                        <mxRectangle width="78" height="45" as="alternateBounds"/>
                    </mxGeometry>
                </mxCell>
                <mxCell id="229" value="10" style="shape=partialRectangle;html=1;whiteSpace=wrap;connectable=0;fillColor=none;top=0;left=0;bottom=0;right=0;overflow=hidden;sketch=0;" parent="221" vertex="1">
                    <mxGeometry x="551" width="79" height="45" as="geometry">
                        <mxRectangle width="79" height="45" as="alternateBounds"/>
                    </mxGeometry>
                </mxCell>
                <mxCell id="258" value="0" style="shape=partialRectangle;html=1;whiteSpace=wrap;connectable=0;fillColor=none;top=0;left=0;bottom=0;right=0;overflow=hidden;sketch=0;" parent="221" vertex="1">
                    <mxGeometry x="630" width="79" height="45" as="geometry">
                        <mxRectangle width="79" height="45" as="alternateBounds"/>
                    </mxGeometry>
                </mxCell>
                <mxCell id="212" style="shape=tableRow;horizontal=0;startSize=0;swimlaneHead=0;swimlaneBody=0;top=0;left=0;bottom=0;right=0;collapsible=0;dropTarget=0;fillColor=none;points=[[0,0.5],[1,0.5]];portConstraint=eastwest;sketch=0;" parent="184" vertex="1">
                    <mxGeometry y="90" width="709" height="45" as="geometry"/>
                </mxCell>
                <mxCell id="213" value="NAMEK" style="shape=partialRectangle;html=1;whiteSpace=wrap;connectable=0;fillColor=none;top=0;left=0;bottom=0;right=0;overflow=hidden;sketch=0;" parent="212" vertex="1">
                    <mxGeometry width="79" height="45" as="geometry">
                        <mxRectangle width="79" height="45" as="alternateBounds"/>
                    </mxGeometry>
                </mxCell>
                <mxCell id="214" value="40" style="shape=partialRectangle;html=1;whiteSpace=wrap;connectable=0;fillColor=none;top=0;left=0;bottom=0;right=0;overflow=hidden;sketch=0;" parent="212" vertex="1">
                    <mxGeometry x="79" width="79" height="45" as="geometry">
                        <mxRectangle width="79" height="45" as="alternateBounds"/>
                    </mxGeometry>
                </mxCell>
                <mxCell id="215" value="0" style="shape=partialRectangle;html=1;whiteSpace=wrap;connectable=0;fillColor=none;top=0;left=0;bottom=0;right=0;overflow=hidden;sketch=0;" parent="212" vertex="1">
                    <mxGeometry x="158" width="78" height="45" as="geometry">
                        <mxRectangle width="78" height="45" as="alternateBounds"/>
                    </mxGeometry>
                </mxCell>
                <mxCell id="216" value="90" style="shape=partialRectangle;html=1;whiteSpace=wrap;connectable=0;fillColor=none;top=0;left=0;bottom=0;right=0;overflow=hidden;sketch=0;" parent="212" vertex="1">
                    <mxGeometry x="236" width="84" height="45" as="geometry">
                        <mxRectangle width="84" height="45" as="alternateBounds"/>
                    </mxGeometry>
                </mxCell>
                <mxCell id="217" value="0" style="shape=partialRectangle;html=1;whiteSpace=wrap;connectable=0;fillColor=none;top=0;left=0;bottom=0;right=0;overflow=hidden;sketch=0;" parent="212" vertex="1">
                    <mxGeometry x="320" width="80" height="45" as="geometry">
                        <mxRectangle width="80" height="45" as="alternateBounds"/>
                    </mxGeometry>
                </mxCell>
                <mxCell id="218" value="70" style="shape=partialRectangle;html=1;whiteSpace=wrap;connectable=0;fillColor=none;top=0;left=0;bottom=0;right=0;overflow=hidden;sketch=0;" parent="212" vertex="1">
                    <mxGeometry x="400" width="73" height="45" as="geometry">
                        <mxRectangle width="73" height="45" as="alternateBounds"/>
                    </mxGeometry>
                </mxCell>
                <mxCell id="219" value="0" style="shape=partialRectangle;html=1;whiteSpace=wrap;connectable=0;fillColor=none;top=0;left=0;bottom=0;right=0;overflow=hidden;sketch=0;" parent="212" vertex="1">
                    <mxGeometry x="473" width="78" height="45" as="geometry">
                        <mxRectangle width="78" height="45" as="alternateBounds"/>
                    </mxGeometry>
                </mxCell>
                <mxCell id="220" value="0" style="shape=partialRectangle;html=1;whiteSpace=wrap;connectable=0;fillColor=none;top=0;left=0;bottom=0;right=0;overflow=hidden;sketch=0;" parent="212" vertex="1">
                    <mxGeometry x="551" width="79" height="45" as="geometry">
                        <mxRectangle width="79" height="45" as="alternateBounds"/>
                    </mxGeometry>
                </mxCell>
                <mxCell id="259" value="0" style="shape=partialRectangle;html=1;whiteSpace=wrap;connectable=0;fillColor=none;top=0;left=0;bottom=0;right=0;overflow=hidden;sketch=0;" parent="212" vertex="1">
                    <mxGeometry x="630" width="79" height="45" as="geometry">
                        <mxRectangle width="79" height="45" as="alternateBounds"/>
                    </mxGeometry>
                </mxCell>
                <mxCell id="185" value="" style="shape=tableRow;horizontal=0;startSize=0;swimlaneHead=0;swimlaneBody=0;top=0;left=0;bottom=0;right=0;collapsible=0;dropTarget=0;fillColor=none;points=[[0,0.5],[1,0.5]];portConstraint=eastwest;sketch=0;" parent="184" vertex="1">
                    <mxGeometry y="135" width="709" height="46" as="geometry"/>
                </mxCell>
                <mxCell id="200" value="VEGATA" style="shape=partialRectangle;html=1;whiteSpace=wrap;connectable=0;fillColor=none;top=0;left=0;bottom=0;right=0;overflow=hidden;sketch=0;" parent="185" vertex="1">
                    <mxGeometry width="79" height="46" as="geometry">
                        <mxRectangle width="79" height="46" as="alternateBounds"/>
                    </mxGeometry>
                </mxCell>
                <mxCell id="186" value="0" style="shape=partialRectangle;html=1;whiteSpace=wrap;connectable=0;fillColor=none;top=0;left=0;bottom=0;right=0;overflow=hidden;sketch=0;" parent="185" vertex="1">
                    <mxGeometry x="79" width="79" height="46" as="geometry">
                        <mxRectangle width="79" height="46" as="alternateBounds"/>
                    </mxGeometry>
                </mxCell>
                <mxCell id="187" value="90" style="shape=partialRectangle;html=1;whiteSpace=wrap;connectable=0;fillColor=none;top=0;left=0;bottom=0;right=0;overflow=hidden;sketch=0;" parent="185" vertex="1">
                    <mxGeometry x="158" width="78" height="46" as="geometry">
                        <mxRectangle width="78" height="46" as="alternateBounds"/>
                    </mxGeometry>
                </mxCell>
                <mxCell id="188" value="0" style="shape=partialRectangle;html=1;whiteSpace=wrap;connectable=0;fillColor=none;top=0;left=0;bottom=0;right=0;overflow=hidden;sketch=0;" parent="185" vertex="1">
                    <mxGeometry x="236" width="84" height="46" as="geometry">
                        <mxRectangle width="84" height="46" as="alternateBounds"/>
                    </mxGeometry>
                </mxCell>
                <mxCell id="197" value="0" style="shape=partialRectangle;html=1;whiteSpace=wrap;connectable=0;fillColor=none;top=0;left=0;bottom=0;right=0;overflow=hidden;sketch=0;" parent="185" vertex="1">
                    <mxGeometry x="320" width="80" height="46" as="geometry">
                        <mxRectangle width="80" height="46" as="alternateBounds"/>
                    </mxGeometry>
                </mxCell>
                <mxCell id="203" value="0" style="shape=partialRectangle;html=1;whiteSpace=wrap;connectable=0;fillColor=none;top=0;left=0;bottom=0;right=0;overflow=hidden;sketch=0;" parent="185" vertex="1">
                    <mxGeometry x="400" width="73" height="46" as="geometry">
                        <mxRectangle width="73" height="46" as="alternateBounds"/>
                    </mxGeometry>
                </mxCell>
                <mxCell id="206" value="0" style="shape=partialRectangle;html=1;whiteSpace=wrap;connectable=0;fillColor=none;top=0;left=0;bottom=0;right=0;overflow=hidden;sketch=0;" parent="185" vertex="1">
                    <mxGeometry x="473" width="78" height="46" as="geometry">
                        <mxRectangle width="78" height="46" as="alternateBounds"/>
                    </mxGeometry>
                </mxCell>
                <mxCell id="209" value="0" style="shape=partialRectangle;html=1;whiteSpace=wrap;connectable=0;fillColor=none;top=0;left=0;bottom=0;right=0;overflow=hidden;sketch=0;" parent="185" vertex="1">
                    <mxGeometry x="551" width="79" height="46" as="geometry">
                        <mxRectangle width="79" height="46" as="alternateBounds"/>
                    </mxGeometry>
                </mxCell>
                <mxCell id="260" value="50" style="shape=partialRectangle;html=1;whiteSpace=wrap;connectable=0;fillColor=none;top=0;left=0;bottom=0;right=0;overflow=hidden;sketch=0;" parent="185" vertex="1">
                    <mxGeometry x="630" width="79" height="46" as="geometry">
                        <mxRectangle width="79" height="46" as="alternateBounds"/>
                    </mxGeometry>
                </mxCell>
                <mxCell id="189" value="" style="shape=tableRow;horizontal=0;startSize=0;swimlaneHead=0;swimlaneBody=0;top=0;left=0;bottom=0;right=0;collapsible=0;dropTarget=0;fillColor=none;points=[[0,0.5],[1,0.5]];portConstraint=eastwest;sketch=0;" parent="184" vertex="1">
                    <mxGeometry y="181" width="709" height="44" as="geometry"/>
                </mxCell>
                <mxCell id="201" value="PLANETA KAIO" style="shape=partialRectangle;html=1;whiteSpace=wrap;connectable=0;fillColor=none;top=0;left=0;bottom=0;right=0;overflow=hidden;sketch=0;" parent="189" vertex="1">
                    <mxGeometry width="79" height="44" as="geometry">
                        <mxRectangle width="79" height="44" as="alternateBounds"/>
                    </mxGeometry>
                </mxCell>
                <mxCell id="190" value="0" style="shape=partialRectangle;html=1;whiteSpace=wrap;connectable=0;fillColor=none;top=0;left=0;bottom=0;right=0;overflow=hidden;sketch=0;" parent="189" vertex="1">
                    <mxGeometry x="79" width="79" height="44" as="geometry">
                        <mxRectangle width="79" height="44" as="alternateBounds"/>
                    </mxGeometry>
                </mxCell>
                <mxCell id="191" value="0" style="shape=partialRectangle;html=1;whiteSpace=wrap;connectable=0;fillColor=none;top=0;left=0;bottom=0;right=0;overflow=hidden;sketch=0;" parent="189" vertex="1">
                    <mxGeometry x="158" width="78" height="44" as="geometry">
                        <mxRectangle width="78" height="44" as="alternateBounds"/>
                    </mxGeometry>
                </mxCell>
                <mxCell id="192" value="0" style="shape=partialRectangle;html=1;whiteSpace=wrap;connectable=0;fillColor=none;top=0;left=0;bottom=0;right=0;overflow=hidden;sketch=0;" parent="189" vertex="1">
                    <mxGeometry x="236" width="84" height="44" as="geometry">
                        <mxRectangle width="84" height="44" as="alternateBounds"/>
                    </mxGeometry>
                </mxCell>
                <mxCell id="198" value="0" style="shape=partialRectangle;html=1;whiteSpace=wrap;connectable=0;fillColor=none;top=0;left=0;bottom=0;right=0;overflow=hidden;sketch=0;" parent="189" vertex="1">
                    <mxGeometry x="320" width="80" height="44" as="geometry">
                        <mxRectangle width="80" height="44" as="alternateBounds"/>
                    </mxGeometry>
                </mxCell>
                <mxCell id="204" value="90" style="shape=partialRectangle;html=1;whiteSpace=wrap;connectable=0;fillColor=none;top=0;left=0;bottom=0;right=0;overflow=hidden;sketch=0;" parent="189" vertex="1">
                    <mxGeometry x="400" width="73" height="44" as="geometry">
                        <mxRectangle width="73" height="44" as="alternateBounds"/>
                    </mxGeometry>
                </mxCell>
                <mxCell id="207" value="0" style="shape=partialRectangle;html=1;whiteSpace=wrap;connectable=0;fillColor=none;top=0;left=0;bottom=0;right=0;overflow=hidden;sketch=0;" parent="189" vertex="1">
                    <mxGeometry x="473" width="78" height="44" as="geometry">
                        <mxRectangle width="78" height="44" as="alternateBounds"/>
                    </mxGeometry>
                </mxCell>
                <mxCell id="210" value="0" style="shape=partialRectangle;html=1;whiteSpace=wrap;connectable=0;fillColor=none;top=0;left=0;bottom=0;right=0;overflow=hidden;sketch=0;" parent="189" vertex="1">
                    <mxGeometry x="551" width="79" height="44" as="geometry">
                        <mxRectangle width="79" height="44" as="alternateBounds"/>
                    </mxGeometry>
                </mxCell>
                <mxCell id="261" value="0" style="shape=partialRectangle;html=1;whiteSpace=wrap;connectable=0;fillColor=none;top=0;left=0;bottom=0;right=0;overflow=hidden;sketch=0;" parent="189" vertex="1">
                    <mxGeometry x="630" width="79" height="44" as="geometry">
                        <mxRectangle width="79" height="44" as="alternateBounds"/>
                    </mxGeometry>
                </mxCell>
                <mxCell id="193" value="" style="shape=tableRow;horizontal=0;startSize=0;swimlaneHead=0;swimlaneBody=0;top=0;left=0;bottom=0;right=0;collapsible=0;dropTarget=0;fillColor=none;points=[[0,0.5],[1,0.5]];portConstraint=eastwest;sketch=0;" parent="184" vertex="1">
                    <mxGeometry y="225" width="709" height="45" as="geometry"/>
                </mxCell>
                <mxCell id="202" value="REINO DE LOS DEMONIOS" style="shape=partialRectangle;html=1;whiteSpace=wrap;connectable=0;fillColor=none;top=0;left=0;bottom=0;right=0;overflow=hidden;sketch=0;" parent="193" vertex="1">
                    <mxGeometry width="79" height="45" as="geometry">
                        <mxRectangle width="79" height="45" as="alternateBounds"/>
                    </mxGeometry>
                </mxCell>
                <mxCell id="194" value="0" style="shape=partialRectangle;html=1;whiteSpace=wrap;connectable=0;fillColor=none;top=0;left=0;bottom=0;right=0;overflow=hidden;sketch=0;" parent="193" vertex="1">
                    <mxGeometry x="79" width="79" height="45" as="geometry">
                        <mxRectangle width="79" height="45" as="alternateBounds"/>
                    </mxGeometry>
                </mxCell>
                <mxCell id="195" value="70" style="shape=partialRectangle;html=1;whiteSpace=wrap;connectable=0;fillColor=none;top=0;left=0;bottom=0;right=0;overflow=hidden;sketch=0;" parent="193" vertex="1">
                    <mxGeometry x="158" width="78" height="45" as="geometry">
                        <mxRectangle width="78" height="45" as="alternateBounds"/>
                    </mxGeometry>
                </mxCell>
                <mxCell id="196" value="0" style="shape=partialRectangle;html=1;whiteSpace=wrap;connectable=0;fillColor=none;top=0;left=0;bottom=0;right=0;overflow=hidden;pointerEvents=1;sketch=0;" parent="193" vertex="1">
                    <mxGeometry x="236" width="84" height="45" as="geometry">
                        <mxRectangle width="84" height="45" as="alternateBounds"/>
                    </mxGeometry>
                </mxCell>
                <mxCell id="199" value="90" style="shape=partialRectangle;html=1;whiteSpace=wrap;connectable=0;fillColor=none;top=0;left=0;bottom=0;right=0;overflow=hidden;pointerEvents=1;sketch=0;" parent="193" vertex="1">
                    <mxGeometry x="320" width="80" height="45" as="geometry">
                        <mxRectangle width="80" height="45" as="alternateBounds"/>
                    </mxGeometry>
                </mxCell>
                <mxCell id="205" value="0" style="shape=partialRectangle;html=1;whiteSpace=wrap;connectable=0;fillColor=none;top=0;left=0;bottom=0;right=0;overflow=hidden;pointerEvents=1;sketch=0;" parent="193" vertex="1">
                    <mxGeometry x="400" width="73" height="45" as="geometry">
                        <mxRectangle width="73" height="45" as="alternateBounds"/>
                    </mxGeometry>
                </mxCell>
                <mxCell id="208" value="0" style="shape=partialRectangle;html=1;whiteSpace=wrap;connectable=0;fillColor=none;top=0;left=0;bottom=0;right=0;overflow=hidden;pointerEvents=1;sketch=0;" parent="193" vertex="1">
                    <mxGeometry x="473" width="78" height="45" as="geometry">
                        <mxRectangle width="78" height="45" as="alternateBounds"/>
                    </mxGeometry>
                </mxCell>
                <mxCell id="211" value="0" style="shape=partialRectangle;html=1;whiteSpace=wrap;connectable=0;fillColor=none;top=0;left=0;bottom=0;right=0;overflow=hidden;pointerEvents=1;sketch=0;" parent="193" vertex="1">
                    <mxGeometry x="551" width="79" height="45" as="geometry">
                        <mxRectangle width="79" height="45" as="alternateBounds"/>
                    </mxGeometry>
                </mxCell>
                <mxCell id="262" value="0" style="shape=partialRectangle;html=1;whiteSpace=wrap;connectable=0;fillColor=none;top=0;left=0;bottom=0;right=0;overflow=hidden;pointerEvents=1;sketch=0;" parent="193" vertex="1">
                    <mxGeometry x="630" width="79" height="45" as="geometry">
                        <mxRectangle width="79" height="45" as="alternateBounds"/>
                    </mxGeometry>
                </mxCell>
                <mxCell id="248" style="shape=tableRow;horizontal=0;startSize=0;swimlaneHead=0;swimlaneBody=0;top=0;left=0;bottom=0;right=0;collapsible=0;dropTarget=0;fillColor=none;points=[[0,0.5],[1,0.5]];portConstraint=eastwest;sketch=0;" parent="184" vertex="1">
                    <mxGeometry y="270" width="709" height="45" as="geometry"/>
                </mxCell>
                <mxCell id="249" value="PLANETA DE BILLS" style="shape=partialRectangle;html=1;whiteSpace=wrap;connectable=0;fillColor=none;top=0;left=0;bottom=0;right=0;overflow=hidden;sketch=0;" parent="248" vertex="1">
                    <mxGeometry width="79" height="45" as="geometry">
                        <mxRectangle width="79" height="45" as="alternateBounds"/>
                    </mxGeometry>
                </mxCell>
                <mxCell id="250" value="180" style="shape=partialRectangle;html=1;whiteSpace=wrap;connectable=0;fillColor=none;top=0;left=0;bottom=0;right=0;overflow=hidden;sketch=0;" parent="248" vertex="1">
                    <mxGeometry x="79" width="79" height="45" as="geometry">
                        <mxRectangle width="79" height="45" as="alternateBounds"/>
                    </mxGeometry>
                </mxCell>
                <mxCell id="251" value="0" style="shape=partialRectangle;html=1;whiteSpace=wrap;connectable=0;fillColor=none;top=0;left=0;bottom=0;right=0;overflow=hidden;sketch=0;" parent="248" vertex="1">
                    <mxGeometry x="158" width="78" height="45" as="geometry">
                        <mxRectangle width="78" height="45" as="alternateBounds"/>
                    </mxGeometry>
                </mxCell>
                <mxCell id="252" value="0" style="shape=partialRectangle;html=1;whiteSpace=wrap;connectable=0;fillColor=none;top=0;left=0;bottom=0;right=0;overflow=hidden;pointerEvents=1;sketch=0;" parent="248" vertex="1">
                    <mxGeometry x="236" width="84" height="45" as="geometry">
                        <mxRectangle width="84" height="45" as="alternateBounds"/>
                    </mxGeometry>
                </mxCell>
                <mxCell id="253" value="0" style="shape=partialRectangle;html=1;whiteSpace=wrap;connectable=0;fillColor=none;top=0;left=0;bottom=0;right=0;overflow=hidden;pointerEvents=1;sketch=0;" parent="248" vertex="1">
                    <mxGeometry x="320" width="80" height="45" as="geometry">
                        <mxRectangle width="80" height="45" as="alternateBounds"/>
                    </mxGeometry>
                </mxCell>
                <mxCell id="254" value="0" style="shape=partialRectangle;html=1;whiteSpace=wrap;connectable=0;fillColor=none;top=0;left=0;bottom=0;right=0;overflow=hidden;pointerEvents=1;sketch=0;" parent="248" vertex="1">
                    <mxGeometry x="400" width="73" height="45" as="geometry">
                        <mxRectangle width="73" height="45" as="alternateBounds"/>
                    </mxGeometry>
                </mxCell>
                <mxCell id="255" value="0" style="shape=partialRectangle;html=1;whiteSpace=wrap;connectable=0;fillColor=none;top=0;left=0;bottom=0;right=0;overflow=hidden;pointerEvents=1;sketch=0;" parent="248" vertex="1">
                    <mxGeometry x="473" width="78" height="45" as="geometry">
                        <mxRectangle width="78" height="45" as="alternateBounds"/>
                    </mxGeometry>
                </mxCell>
                <mxCell id="256" value="0" style="shape=partialRectangle;html=1;whiteSpace=wrap;connectable=0;fillColor=none;top=0;left=0;bottom=0;right=0;overflow=hidden;pointerEvents=1;sketch=0;" parent="248" vertex="1">
                    <mxGeometry x="551" width="79" height="45" as="geometry">
                        <mxRectangle width="79" height="45" as="alternateBounds"/>
                    </mxGeometry>
                </mxCell>
                <mxCell id="263" value="0" style="shape=partialRectangle;html=1;whiteSpace=wrap;connectable=0;fillColor=none;top=0;left=0;bottom=0;right=0;overflow=hidden;pointerEvents=1;sketch=0;" parent="248" vertex="1">
                    <mxGeometry x="630" width="79" height="45" as="geometry">
                        <mxRectangle width="79" height="45" as="alternateBounds"/>
                    </mxGeometry>
                </mxCell>
                <mxCell id="230" style="shape=tableRow;horizontal=0;startSize=0;swimlaneHead=0;swimlaneBody=0;top=0;left=0;bottom=0;right=0;collapsible=0;dropTarget=0;fillColor=none;points=[[0,0.5],[1,0.5]];portConstraint=eastwest;sketch=0;" parent="184" vertex="1">
                    <mxGeometry y="315" width="709" height="45" as="geometry"/>
                </mxCell>
                <mxCell id="231" value="LA HABITACION DEL TIEMPO" style="shape=partialRectangle;html=1;whiteSpace=wrap;connectable=0;fillColor=none;top=0;left=0;bottom=0;right=0;overflow=hidden;sketch=0;" parent="230" vertex="1">
                    <mxGeometry width="79" height="45" as="geometry">
                        <mxRectangle width="79" height="45" as="alternateBounds"/>
                    </mxGeometry>
                </mxCell>
                <mxCell id="232" value="10" style="shape=partialRectangle;html=1;whiteSpace=wrap;connectable=0;fillColor=none;top=0;left=0;bottom=0;right=0;overflow=hidden;sketch=0;" parent="230" vertex="1">
                    <mxGeometry x="79" width="79" height="45" as="geometry">
                        <mxRectangle width="79" height="45" as="alternateBounds"/>
                    </mxGeometry>
                </mxCell>
                <mxCell id="233" value="0" style="shape=partialRectangle;html=1;whiteSpace=wrap;connectable=0;fillColor=none;top=0;left=0;bottom=0;right=0;overflow=hidden;sketch=0;" parent="230" vertex="1">
                    <mxGeometry x="158" width="78" height="45" as="geometry">
                        <mxRectangle width="78" height="45" as="alternateBounds"/>
                    </mxGeometry>
                </mxCell>
                <mxCell id="234" value="0" style="shape=partialRectangle;html=1;whiteSpace=wrap;connectable=0;fillColor=none;top=0;left=0;bottom=0;right=0;overflow=hidden;pointerEvents=1;sketch=0;" parent="230" vertex="1">
                    <mxGeometry x="236" width="84" height="45" as="geometry">
                        <mxRectangle width="84" height="45" as="alternateBounds"/>
                    </mxGeometry>
                </mxCell>
                <mxCell id="235" value="0" style="shape=partialRectangle;html=1;whiteSpace=wrap;connectable=0;fillColor=none;top=0;left=0;bottom=0;right=0;overflow=hidden;pointerEvents=1;sketch=0;" parent="230" vertex="1">
                    <mxGeometry x="320" width="80" height="45" as="geometry">
                        <mxRectangle width="80" height="45" as="alternateBounds"/>
                    </mxGeometry>
                </mxCell>
                <mxCell id="236" value="0" style="shape=partialRectangle;html=1;whiteSpace=wrap;connectable=0;fillColor=none;top=0;left=0;bottom=0;right=0;overflow=hidden;pointerEvents=1;sketch=0;" parent="230" vertex="1">
                    <mxGeometry x="400" width="73" height="45" as="geometry">
                        <mxRectangle width="73" height="45" as="alternateBounds"/>
                    </mxGeometry>
                </mxCell>
                <mxCell id="237" value="0" style="shape=partialRectangle;html=1;whiteSpace=wrap;connectable=0;fillColor=none;top=0;left=0;bottom=0;right=0;overflow=hidden;pointerEvents=1;sketch=0;" parent="230" vertex="1">
                    <mxGeometry x="473" width="78" height="45" as="geometry">
                        <mxRectangle width="78" height="45" as="alternateBounds"/>
                    </mxGeometry>
                </mxCell>
                <mxCell id="238" value="0" style="shape=partialRectangle;html=1;whiteSpace=wrap;connectable=0;fillColor=none;top=0;left=0;bottom=0;right=0;overflow=hidden;pointerEvents=1;sketch=0;" parent="230" vertex="1">
                    <mxGeometry x="551" width="79" height="45" as="geometry">
                        <mxRectangle width="79" height="45" as="alternateBounds"/>
                    </mxGeometry>
                </mxCell>
                <mxCell id="264" value="0" style="shape=partialRectangle;html=1;whiteSpace=wrap;connectable=0;fillColor=none;top=0;left=0;bottom=0;right=0;overflow=hidden;pointerEvents=1;sketch=0;" parent="230" vertex="1">
                    <mxGeometry x="630" width="79" height="45" as="geometry">
                        <mxRectangle width="79" height="45" as="alternateBounds"/>
                    </mxGeometry>
                </mxCell>
                <mxCell id="265" style="shape=tableRow;horizontal=0;startSize=0;swimlaneHead=0;swimlaneBody=0;top=0;left=0;bottom=0;right=0;collapsible=0;dropTarget=0;fillColor=none;points=[[0,0.5],[1,0.5]];portConstraint=eastwest;sketch=0;" parent="184" vertex="1">
                    <mxGeometry y="360" width="709" height="45" as="geometry"/>
                </mxCell>
                <mxCell id="266" value="PLANETA YADARAT" style="shape=partialRectangle;html=1;whiteSpace=wrap;connectable=0;fillColor=none;top=0;left=0;bottom=0;right=0;overflow=hidden;sketch=0;" parent="265" vertex="1">
                    <mxGeometry width="79" height="45" as="geometry">
                        <mxRectangle width="79" height="45" as="alternateBounds"/>
                    </mxGeometry>
                </mxCell>
                <mxCell id="267" value="0" style="shape=partialRectangle;html=1;whiteSpace=wrap;connectable=0;fillColor=none;top=0;left=0;bottom=0;right=0;overflow=hidden;sketch=0;" parent="265" vertex="1">
                    <mxGeometry x="79" width="79" height="45" as="geometry">
                        <mxRectangle width="79" height="45" as="alternateBounds"/>
                    </mxGeometry>
                </mxCell>
                <mxCell id="268" value="0" style="shape=partialRectangle;html=1;whiteSpace=wrap;connectable=0;fillColor=none;top=0;left=0;bottom=0;right=0;overflow=hidden;sketch=0;" parent="265" vertex="1">
                    <mxGeometry x="158" width="78" height="45" as="geometry">
                        <mxRectangle width="78" height="45" as="alternateBounds"/>
                    </mxGeometry>
                </mxCell>
                <mxCell id="269" value="90" style="shape=partialRectangle;html=1;whiteSpace=wrap;connectable=0;fillColor=none;top=0;left=0;bottom=0;right=0;overflow=hidden;pointerEvents=1;sketch=0;" parent="265" vertex="1">
                    <mxGeometry x="236" width="84" height="45" as="geometry">
                        <mxRectangle width="84" height="45" as="alternateBounds"/>
                    </mxGeometry>
                </mxCell>
                <mxCell id="270" value="0" style="shape=partialRectangle;html=1;whiteSpace=wrap;connectable=0;fillColor=none;top=0;left=0;bottom=0;right=0;overflow=hidden;pointerEvents=1;sketch=0;" parent="265" vertex="1">
                    <mxGeometry x="320" width="80" height="45" as="geometry">
                        <mxRectangle width="80" height="45" as="alternateBounds"/>
                    </mxGeometry>
                </mxCell>
                <mxCell id="271" value="0" style="shape=partialRectangle;html=1;whiteSpace=wrap;connectable=0;fillColor=none;top=0;left=0;bottom=0;right=0;overflow=hidden;pointerEvents=1;sketch=0;" parent="265" vertex="1">
                    <mxGeometry x="400" width="73" height="45" as="geometry">
                        <mxRectangle width="73" height="45" as="alternateBounds"/>
                    </mxGeometry>
                </mxCell>
                <mxCell id="272" value="0" style="shape=partialRectangle;html=1;whiteSpace=wrap;connectable=0;fillColor=none;top=0;left=0;bottom=0;right=0;overflow=hidden;pointerEvents=1;sketch=0;" parent="265" vertex="1">
                    <mxGeometry x="473" width="78" height="45" as="geometry">
                        <mxRectangle width="78" height="45" as="alternateBounds"/>
                    </mxGeometry>
                </mxCell>
                <mxCell id="273" value="0" style="shape=partialRectangle;html=1;whiteSpace=wrap;connectable=0;fillColor=none;top=0;left=0;bottom=0;right=0;overflow=hidden;pointerEvents=1;sketch=0;" parent="265" vertex="1">
                    <mxGeometry x="551" width="79" height="45" as="geometry">
                        <mxRectangle width="79" height="45" as="alternateBounds"/>
                    </mxGeometry>
                </mxCell>
                <mxCell id="274" value="0" style="shape=partialRectangle;html=1;whiteSpace=wrap;connectable=0;fillColor=none;top=0;left=0;bottom=0;right=0;overflow=hidden;pointerEvents=1;sketch=0;" parent="265" vertex="1">
                    <mxGeometry x="630" width="79" height="45" as="geometry">
                        <mxRectangle width="79" height="45" as="alternateBounds"/>
                    </mxGeometry>
                </mxCell>
            </root>
        </mxGraphModel>
    </diagram>
</mxfile>